<?xml version="1.0" standalone="no"?>
<!DOCTYPE svg PUBLIC "-//W3C//DTD SVG 20010904//EN"
 "http://www.w3.org/TR/2001/REC-SVG-20010904/DTD/svg10.dtd">
<svg version="1.0" xmlns="http://www.w3.org/2000/svg"
 width="153.000000pt" height="147.000000pt" viewBox="0 0 153.000000 147.000000"
 preserveAspectRatio="xMidYMid meet">

<g transform="translate(0.000000,147.000000) scale(0.100000,-0.100000)"
fill="#000000" stroke="none">
<path d="M0 735 l0 -735 765 0 765 0 0 735 0 735 -765 0 -765 0 0 -735z m1378
619 c52 -36 52 -40 52 -509 0 -483 1 -478 -64 -509 -28 -13 -70 -16 -240 -16
-170 0 -206 -2 -206 -14 0 -14 62 -28 188 -42 51 -5 66 -11 79 -30 14 -22 14
-26 -1 -49 l-16 -25 -380 0 c-331 0 -381 2 -394 16 -20 19 -20 48 -2 67 8 8
43 17 78 21 126 14 188 28 188 42 0 12 -37 14 -208 14 -233 0 -259 6 -294 71
-17 31 -18 66 -18 452 0 453 1 463 55 505 28 22 28 22 594 22 497 0 569 -2
589 -16z"/>
<path d="M252 1268 c-17 -17 -17 -819 0 -836 17 -17 1059 -17 1076 0 16 16 17
799 2 829 -10 18 -27 19 -538 19 -397 0 -531 -3 -540 -12z m798 -88 c15 -15
20 -33 20 -76 0 -49 5 -62 40 -111 52 -74 56 -129 10 -175 l-30 -30 0 -134 c0
-75 -5 -144 -10 -155 -10 -18 -24 -19 -290 -19 -266 0 -280 1 -290 19 -5 11
-10 82 -10 158 l0 139 -30 22 c-26 19 -30 29 -30 69 0 38 7 56 45 109 41 57
45 67 45 123 0 47 4 62 18 70 10 6 112 11 255 11 224 0 238 -1 257 -20z"/>
<path d="M580 1100 l0 -30 210 0 210 0 0 30 0 30 -210 0 -210 0 0 -30z"/>
<path d="M560 991 c0 -4 -14 -24 -30 -42 -33 -37 -36 -74 -7 -74 11 0 30 22
53 63 l35 62 -25 0 c-14 0 -26 -4 -26 -9z"/>
<path d="M631 934 l-41 -65 32 3 c31 3 34 6 50 66 9 34 13 62 8 62 -4 0 -26
-30 -49 -66z"/>
<path d="M731 978 c-4 -13 -11 -42 -15 -65 -6 -43 -6 -43 24 -43 l30 0 0 65
c0 52 -3 65 -15 65 -9 0 -19 -10 -24 -22z"/>
<path d="M812 938 l3 -63 33 -3 c31 -3 32 -2 26 25 -16 64 -32 98 -48 101 -15
3 -17 -5 -14 -60z"/>
<path d="M895 988 c38 -122 35 -118 66 -118 22 0 28 4 23 13 -42 69 -76 117
-84 117 -5 0 -8 -6 -5 -12z"/>
<path d="M980 995 c0 -3 14 -32 30 -65 30 -60 48 -72 68 -47 14 17 -54 116
-80 116 -10 1 -18 -1 -18 -4z"/>
<path d="M560 670 l0 -130 60 0 59 0 3 118 3 117 110 0 110 0 3 -117 3 -118
54 0 55 0 0 130 0 130 -230 0 -230 0 0 -130z"/>
<path d="M720 640 l0 -100 75 0 75 0 0 100 0 100 -75 0 -75 0 0 -100z"/>
</g>
</svg>
